<svg width="25" height="24" viewBox="0 0 25 24" fill="none" xmlns="http://www.w3.org/2000/svg">
<path d="M20.2606 3.67969L8.04969 1.52344C7.65796 1.4545 7.2549 1.54397 6.92913 1.77217C6.60335 2.00037 6.38155 2.34861 6.3125 2.74031L3.52344 18.5841C3.48932 18.7782 3.49379 18.9771 3.53659 19.1694C3.57938 19.3618 3.65967 19.5439 3.77285 19.7052C3.88603 19.8665 4.0299 20.004 4.19622 20.1097C4.36254 20.2154 4.54807 20.2873 4.74219 20.3213L16.9531 22.4775C17.1473 22.5117 17.3463 22.5074 17.5388 22.4647C17.7313 22.4219 17.9134 22.3417 18.0749 22.2285C18.2363 22.1153 18.3738 21.9714 18.4796 21.805C18.5854 21.6386 18.6573 21.453 18.6912 21.2588L21.4803 5.415C21.5486 5.02315 21.4585 4.6202 21.2298 4.29478C21.0011 3.96936 20.6525 3.74811 20.2606 3.67969ZM17.2119 21L5 18.8438L7.78906 3L20 5.15625L17.2119 21ZM8.87562 5.47688C8.91036 5.2811 9.02143 5.10713 9.18439 4.99321C9.34736 4.8793 9.54889 4.83475 9.74469 4.86938L17.5259 6.24281C17.7109 6.27521 17.8769 6.37579 17.9913 6.52467C18.1057 6.67356 18.16 6.85993 18.1437 7.04696C18.1273 7.23399 18.0414 7.40808 17.9029 7.53484C17.7644 7.66159 17.5834 7.73179 17.3956 7.73156C17.3516 7.7315 17.3077 7.72774 17.2644 7.72031L9.48312 6.34594C9.28735 6.3112 9.11338 6.20014 8.99946 6.03717C8.88554 5.87421 8.841 5.67267 8.87562 5.47688ZM8.35625 8.43188C8.37334 8.33485 8.40938 8.24215 8.46231 8.15906C8.51524 8.07597 8.58403 8.00412 8.66473 7.94762C8.74544 7.89111 8.83648 7.85107 8.93267 7.82976C9.02885 7.80845 9.1283 7.8063 9.22531 7.82344L17.0066 9.19781C17.1928 9.22896 17.3604 9.3292 17.476 9.47853C17.5915 9.62786 17.6465 9.81527 17.6299 10.0034C17.6134 10.1915 17.5265 10.3664 17.3866 10.4932C17.2467 10.62 17.0641 10.6894 16.8753 10.6875C16.831 10.6876 16.7867 10.6835 16.7431 10.6753L8.96187 9.30188C8.76625 9.26671 8.59258 9.15533 8.47903 8.9922C8.36547 8.82907 8.32131 8.62754 8.35625 8.43188ZM7.83594 11.3859C7.87133 11.1907 7.98266 11.0174 8.14555 10.9041C8.30844 10.7907 8.50961 10.7466 8.705 10.7813L12.5938 11.4647C12.7786 11.4971 12.9446 11.5976 13.059 11.7464C13.1733 11.8952 13.2278 12.0814 13.2115 12.2684C13.1953 12.4553 13.1095 12.6294 12.9712 12.7562C12.8329 12.8831 12.652 12.9534 12.4644 12.9534C12.4204 12.9534 12.3765 12.9497 12.3331 12.9422L8.4425 12.255C8.2469 12.22 8.07316 12.1089 7.95943 11.9459C7.84571 11.783 7.80129 11.5816 7.83594 11.3859Z" fill="#F5F6F6"/>
</svg>
